<?xml version="1.0" standalone="no"?>
<!DOCTYPE svg PUBLIC "-//W3C//DTD SVG 20010904//EN"
 "http://www.w3.org/TR/2001/REC-SVG-20010904/DTD/svg10.dtd">
<svg version="1.0" xmlns="http://www.w3.org/2000/svg"
 width="260.000000pt" height="260.000000pt" viewBox="0 0 260.000000 260.000000"
 preserveAspectRatio="xMidYMid meet">
<metadata>
Created by potrace 1.11, written by Peter Selinger 2001-2013
</metadata>
<g transform="translate(0.000000,260.000000) scale(0.100000,-0.100000)"
fill="#000000" stroke="none">
<path d="M1145 2345 c-103 -27 -184 -73 -260 -150 -150 -151 -220 -367 -180
-559 18 -86 51 -157 124 -271 142 -220 182 -342 182 -564 l0 -120 132 -3 c73
-2 193 -1 267 2 l135 5 2 25 c0 14 4 70 7 125 9 166 82 345 210 518 103 139
149 275 141 422 -8 157 -68 289 -185 405 -74 74 -149 122 -240 155 -66 23
-258 29 -335 10z"/>
<path d="M1457 614 c-1 -1 -31 -4 -67 -8 -92 -10 -118 -13 -175 -21 -159 -24
-198 -36 -212 -68 -23 -52 15 -70 112 -52 72 14 117 21 183 30 85 12 110 15
176 21 83 7 111 17 126 43 8 17 6 25 -10 41 -16 16 -31 20 -76 18 -31 -2 -56
-4 -57 -4z"/>
<path d="M1490 442 c-42 -3 -286 -37 -320 -45 -8 -2 -36 -7 -63 -12 -58 -9
-97 -38 -97 -71 0 -39 34 -45 133 -24 47 10 105 21 129 25 24 3 54 8 68 10 14
2 48 7 75 10 147 16 175 27 175 65 0 33 -32 47 -100 42z"/>
<path d="M1297 240 c-93 -16 -173 -30 -179 -32 -16 -6 51 -69 89 -84 69 -29
172 -11 224 39 26 24 59 82 59 102 0 7 -4 7 -193 -25z"/>
</g>
</svg>
